# xmcd
#
# Track frame offsets:
#	150
#	21420
#	43078
#	66651
#	85171
#	111595
#	122246
#	139816
#	159175
#	180020
#	197720
#	213556
#	230298
#	259841
#	277001
#	306901
#
# Disc length: 4367 seconds
#
# Revision: 0
# Processed by: cddbd v1.5.2PL0 Copyright (c) Steve Scherf et al.
# Submitted via: dBpowerAMP V4.0
#
DISCID=ee110d10
DTITLE=RNB - The Green Room
DYEAR=2007
DGENRE=R&B
TTITLE0=Her Name
TTITLE1=Lazy Saturday feat. Bronche
TTITLE2=Spend The Years
TTITLE3=Get Down
TTITLE4=Colors
TTITLE5=Unbelievable
TTITLE6=Finally
TTITLE7=Overwhelmed
TTITLE8=Baby
TTITLE9=Spontaneous
TTITLE10=Unquestionable feat. The Naturel
TTITLE11=My soul
TTITLE12=Let's Grow Old
TTITLE13=However You Are
TTITLE14=Miss Chance
TTITLE15=Home
EXTD=
EXTT0=
EXTT1=
EXTT2=
EXTT3=
EXTT4=
EXTT5=
EXTT6=
EXTT7=
EXTT8=
EXTT9=
EXTT10=
EXTT11=
EXTT12=
EXTT13=
EXTT14=
EXTT15=
PLAYORDER=
